<?xml version="1.0" encoding="iso-8859-1"?>
<!-- Generator: Adobe Illustrator 19.0.0, SVG Export Plug-In . SVG Version: 6.00 Build 0)  -->
<svg version="1.1" id="Layer_1" xmlns="http://www.w3.org/2000/svg" xmlns:xlink="http://www.w3.org/1999/xlink" x="0px" y="0px"
	 viewBox="0 0 512 512" style="enable-background:new 0 0 512 512;" xml:space="preserve">
<path style="fill:#507C5C;" d="M385.8,496.649H33.534C15.043,496.649,0,481.606,0,463.115V235.097
	c0-18.49,15.043-33.534,33.534-33.534H385.8c18.49,0,33.534,15.043,33.534,33.534v135.561c0,8.5-6.891,15.389-15.389,15.389
	s-15.389-6.89-15.389-15.389V235.097c0-1.519-1.236-2.755-2.755-2.755H33.534c-1.519,0-2.755,1.236-2.755,2.755v228.018
	c0,1.519,1.236,2.755,2.755,2.755H385.8c8.498,0,15.389,6.89,15.389,15.389C401.19,489.759,394.3,496.649,385.8,496.649z"/>
<polygon style="fill:#CFF09E;" points="403.946,307.349 403.946,390.863 496.611,452.784 496.611,245.428 "/>
<path style="fill:#507C5C;" d="M496.612,468.174c-2.992,0-5.974-0.871-8.552-2.595l-92.666-61.921
	c-4.274-2.855-6.839-7.656-6.839-12.795v-83.512c0-5.14,2.565-9.94,6.839-12.795l92.666-61.921
	c4.718-3.155,10.794-3.455,15.805-0.777c5.008,2.676,8.135,7.893,8.135,13.572v207.356c0,5.679-3.127,10.896-8.135,13.572
	C501.592,467.572,499.099,468.174,496.612,468.174z M419.334,382.638l61.887,41.355v-149.77l-61.887,41.355V382.638z"/>
<circle style="fill:#CFF09E;" cx="289.507" cy="123.793" r="93.045"/>
<path style="fill:#507C5C;" d="M289.507,232.229c-59.794,0-108.439-48.645-108.439-108.439S229.714,15.351,289.507,15.351
	S397.946,63.997,397.946,123.79S349.301,232.229,289.507,232.229z M289.507,46.13c-42.821,0-77.66,34.839-77.66,77.66
	s34.839,77.66,77.66,77.66s77.66-34.839,77.66-77.66S332.328,46.13,289.507,46.13z"/>
<circle style="fill:#CFF09E;" cx="113.742" cy="139.875" r="76.963"/>
<g>
	<path style="fill:#507C5C;" d="M113.742,232.229c-50.924,0-92.354-41.43-92.354-92.354s41.43-92.354,92.354-92.354
		c50.925,0,92.355,41.43,92.355,92.354C206.097,190.799,164.667,232.229,113.742,232.229z M113.742,78.3
		c-33.952,0-61.575,27.623-61.575,61.575s27.623,61.575,61.575,61.575c33.954,0,61.576-27.623,61.576-61.575
		S147.696,78.3,113.742,78.3z"/>
	<path style="fill:#507C5C;" d="M155.592,435.393c-5.32,0-10.491-2.759-13.343-7.696c-4.251-7.361-1.728-16.773,5.633-21.022
		l94.305-54.448l-71.221-41.119v34.165c0,8.5-6.891,15.389-15.389,15.389c-8.498,0-15.389-6.89-15.389-15.389v-60.821
		c0-5.499,2.933-10.579,7.695-13.327c4.762-2.749,10.628-2.749,15.389,0l117.389,67.775c4.761,2.749,7.695,7.829,7.695,13.327
		s-2.933,10.579-7.695,13.327l-117.389,67.775C160.849,434.726,158.202,435.393,155.592,435.393z"/>
</g>
<g>
</g>
<g>
</g>
<g>
</g>
<g>
</g>
<g>
</g>
<g>
</g>
<g>
</g>
<g>
</g>
<g>
</g>
<g>
</g>
<g>
</g>
<g>
</g>
<g>
</g>
<g>
</g>
<g>
</g>
</svg>
